<?xml version="1.0" encoding="UTF-8"?>
<!DOCTYPE svg PUBLIC "-//W3C//DTD SVG 1.1//EN" "http://www.w3.org/Graphics/SVG/1.1/DTD/svg11.dtd">
<svg xmlns="http://www.w3.org/2000/svg" version="1.1" width="500px" height="500px" style="shape-rendering:geometricPrecision; text-rendering:geometricPrecision; image-rendering:optimizeQuality; fill-rule:evenodd; clip-rule:evenodd" xmlns:xlink="http://www.w3.org/1999/xlink">
<g><path style="opacity:1" fill="#5ce0e5" d="M -0.5,-0.5 C 166.167,-0.5 332.833,-0.5 499.5,-0.5C 499.5,166.167 499.5,332.833 499.5,499.5C 332.833,499.5 166.167,499.5 -0.5,499.5C -0.5,332.833 -0.5,166.167 -0.5,-0.5 Z"/></g>
<g><path style="opacity:1" fill="#fe6d4d" d="M 287.5,94.5 C 288.329,101.989 288.829,109.656 289,117.5C 291.106,119.377 292.439,121.71 293,124.5C 293.863,129.827 294.697,135.161 295.5,140.5C 297.131,142.059 297.964,144.059 298,146.5C 309.894,148.28 320.227,153.28 329,161.5C 329.837,163.351 330.671,165.184 331.5,167C 338.61,167.306 344.444,170.139 349,175.5C 353.433,183.818 358.767,191.485 365,198.5C 373.396,216.203 377.73,234.87 378,254.5C 379.067,255.191 380.234,255.691 381.5,256C 391.207,256.64 400.874,257.64 410.5,259C 412.972,260.46 415.639,261.46 418.5,262C 424.5,262.333 430.5,262.667 436.5,263C 452.147,263.69 452.48,266.357 437.5,271C 417.81,271.153 398.144,271.82 378.5,273C 377.069,273.465 375.903,274.299 375,275.5C 367.866,288.101 361.533,301.101 356,314.5C 351.561,318.938 347.894,323.938 345,329.5C 341.428,331.069 338.428,333.402 336,336.5C 338.605,351.735 340.939,367.068 343,382.5C 343.667,390.5 343.667,398.5 343,406.5C 342.964,408.941 342.131,410.941 340.5,412.5C 336.765,401.695 331.932,391.362 326,381.5C 323.667,380.123 321.167,379.123 318.5,378.5C 317.833,385.5 317.167,392.5 316.5,399.5C 316.167,399.333 315.833,399.167 315.5,399C 312.746,394.009 310.746,388.676 309.5,383C 309.167,382.5 308.833,382 308.5,381.5C 307.109,382.645 305.776,382.645 304.5,381.5C 303.009,376.509 300.509,372.176 297,368.5C 296.909,362.821 294.075,360.988 288.5,363C 278.264,365.6 268.098,368.434 258,371.5C 255.815,371.079 253.649,370.579 251.5,370C 238.833,369.667 226.167,369.333 213.5,369C 211.167,367.333 208.833,365.667 206.5,364C 203.833,363.667 201.167,363.333 198.5,363C 193.262,360.865 187.929,359.032 182.5,357.5C 174.234,352.449 165.734,347.783 157,343.5C 156.228,343.645 155.561,343.978 155,344.5C 152.306,356.223 146.306,365.889 137,373.5C 135.204,376.927 133.037,380.094 130.5,383C 129.167,383.667 127.833,383.667 126.5,383C 125.565,380.619 125.232,378.119 125.5,375.5C 124.127,375.343 122.793,375.51 121.5,376C 118.833,378 116.167,380 113.5,382C 112.552,382.483 111.552,382.649 110.5,382.5C 110.657,381.127 110.49,379.793 110,378.5C 98.8033,386.405 95.1366,383.405 99,369.5C 112.351,351.442 125.184,333.108 137.5,314.5C 134.013,309.537 130.513,304.537 127,299.5C 126.294,294.715 124.794,290.215 122.5,286C 109.461,285.35 96.4606,285.85 83.5,287.5C 79.5988,286.258 75.5988,285.091 71.5,284C 69.4732,282.604 69.1398,280.938 70.5,279C 76.3114,277.581 81.9781,275.914 87.5,274C 88.9348,271.733 88.6015,269.733 86.5,268C 83.9109,266.803 81.2442,265.803 78.5,265C 77.2135,262.978 76.2135,260.811 75.5,258.5C 72.2473,257.402 68.9139,256.736 65.5,256.5C 64.9648,253.762 65.9648,251.928 68.5,251C 84.529,250.118 100.529,249.118 116.5,248C 118.049,246.786 119.215,245.286 120,243.5C 123.511,224.12 130.178,205.787 140,188.5C 147.84,178.001 156.34,168.167 165.5,159C 167.134,158.506 168.801,158.34 170.5,158.5C 170.178,156.278 170.845,154.444 172.5,153C 182.296,148.621 192.296,144.621 202.5,141C 220.039,137.351 237.706,135.018 255.5,134C 256.126,133.25 256.626,132.416 257,131.5C 258.363,121.46 259.863,111.46 261.5,101.5C 263.731,101.113 266.064,100.947 268.5,101C 269.817,99.3409 271.483,98.1743 273.5,97.5C 274.797,100.575 276.297,103.575 278,106.5C 280.761,105.523 282.094,103.523 282,100.5C 283.36,97.9774 285.193,95.9774 287.5,94.5 Z"/></g>
<g><path style="opacity:1" fill="#5fdfe3" d="M 230.5,162.5 C 232.199,162.34 233.866,162.506 235.5,163C 231.856,169.787 227.356,175.954 222,181.5C 211.132,206.077 196.632,228.243 178.5,248C 169.173,248.5 159.839,248.666 150.5,248.5C 150.066,239.374 150.899,230.374 153,221.5C 155.633,215.907 157.967,210.241 160,204.5C 163.333,199.833 166.667,195.167 170,190.5C 178.156,183.356 186.656,176.522 195.5,170C 207.361,167.796 219.027,165.296 230.5,162.5 Z"/></g>
<g><path style="opacity:1" fill="#5fdfe4" d="M 294.5,169.5 C 303.485,174.31 311.485,180.476 318.5,188C 321.426,188.218 324.26,188.718 327,189.5C 330.359,195.229 333.359,201.229 336,207.5C 340.416,212.607 345.083,217.607 350,222.5C 350.37,225.338 350.203,228.171 349.5,231C 351.5,234.863 352.5,239.03 352.5,243.5C 352.468,245.759 352.134,247.925 351.5,250C 338.167,250.667 324.833,250.667 311.5,250C 309.998,249.417 308.665,248.584 307.5,247.5C 305.725,237.338 303.225,227.338 300,217.5C 298.335,204.866 297.002,192.2 296,179.5C 293.868,176.303 293.368,172.969 294.5,169.5 Z"/></g>
<g><path style="opacity:1" fill="#61dee3" d="M 262.5,174.5 C 263.833,174.5 265.167,174.5 266.5,174.5C 267.832,185.153 267.832,195.82 266.5,206.5C 268.591,211.612 269.758,216.946 270,222.5C 270.58,231.182 270.913,239.849 271,248.5C 256.532,249.179 242.032,250.179 227.5,251.5C 224.833,251.333 222.167,251.167 219.5,251C 217.842,250.275 217.342,249.108 218,247.5C 222.083,242.001 225.083,236.001 227,229.5C 235.684,219.795 242.351,208.795 247,196.5C 252.422,189.313 257.589,181.979 262.5,174.5 Z"/></g>
<g><path style="opacity:1" fill="#63dee2" d="M 320.5,271.5 C 328.833,271.5 337.167,271.5 345.5,271.5C 344.09,279.893 341.59,287.893 338,295.5C 334.324,300.007 330.49,304.341 326.5,308.5C 324.845,301.938 323.679,295.271 323,288.5C 321.074,284.483 319.574,280.316 318.5,276C 318.519,274.167 319.185,272.667 320.5,271.5 Z"/></g>
<g><path style="opacity:1" fill="#5ee0e4" d="M 265.5,274.5 C 269.5,274.5 273.5,274.5 277.5,274.5C 278.754,288.276 280.754,301.942 283.5,315.5C 286.086,315.946 287.42,317.446 287.5,320C 286.545,325.164 286.378,330.331 287,335.5C 278.341,339.623 269.174,341.789 259.5,342C 253.774,343.467 248.274,345.3 243,347.5C 226.47,342.546 209.97,337.38 193.5,332C 188.536,329.352 183.869,326.352 179.5,323C 176.42,321.289 175.254,318.789 176,315.5C 184.131,305.277 190.965,294.277 196.5,282.5C 198.833,280.667 201.167,278.833 203.5,277C 224.287,275.88 244.953,275.047 265.5,274.5 Z"/></g>
<g><path style="opacity:1" fill="#77d5d5" d="M 149.5,277.5 C 151.5,277.5 153.5,277.5 155.5,277.5C 155.528,281.155 153.861,283.822 150.5,285.5C 148.83,282.887 148.497,280.221 149.5,277.5 Z"/></g>
</svg>
